<svg xmlns="http://www.w3.org/2000/svg" width="556.963" height="556.963" viewBox="0 0 556.963 556.963" fill="#444">
    <path d="M336.604 53.152v122.449c0 10.575.826 18.341 2.484 23.311 2.692 7.674 8.807 11.5 18.335 11.5 10.355 0 21.028-6.408 32.008-19.266v17.093h28.287V53.152h-28.281v118.41c-6.218 8.923-12.117 13.366-17.717 13.366-3.728 0-5.906-2.271-6.524-6.836-.208-.41-.312-4.045-.312-10.875V53.152h-28.28zM271.958 210.412c14.296 0 25.276-5.282 32.944-15.845 5.802-7.663 8.703-19.896 8.703-36.677v-54.389c0-16.573-2.901-28.69-8.703-36.359-7.668-10.575-18.647-15.857-32.944-15.857-13.886 0-24.762 5.282-32.638 15.857-5.802 7.675-8.703 19.792-8.703 36.359v54.389c0 16.585 2.901 28.813 8.703 36.677 7.87 10.563 18.751 15.845 32.638 15.845zm-13.367-112.51c0-14.291 4.456-21.438 13.366-21.438 8.905 0 13.366 7.148 13.366 21.438v65.27c0 14.511-4.461 21.757-13.366 21.757-8.911 0-13.366-7.246-13.366-21.757v-65.27zM192.704 208.239v-84.224L230.311 0h-31.702l-21.132 81.745L155.402 0h-32.944c5.802 17.412 12.534 36.788 20.202 58.116 9.737 28.605 16.053 50.563 18.96 65.9v84.218h31.083v.005zM482.834 257.034c-9.223-8.28-19.841-13.146-31.854-14.608-38.127-4.137-95.625-6.218-172.492-6.218-76.873 0-134.267 2.075-172.186 6.218-12.228 1.457-22.895 6.328-32.014 14.608-9.119 8.305-15.128 18.55-18.029 30.777-5.392 24.039-8.079 60.288-8.079 108.783 0 49.314 2.693 85.569 8.079 108.783 2.692 12.215 8.647 22.472 17.87 30.765 9.217 8.293 19.835 13.054 31.854 14.303 38.122 4.345 95.619 6.518 172.499 6.518 76.873 0 134.371-2.173 172.492-6.518 12.014-1.249 22.583-6.01 31.701-14.303 9.113-8.293 15.123-18.55 18.03-30.765 5.386-24.04 8.078-60.301 8.078-108.783 0-49.315-2.692-85.57-8.078-108.783-2.699-12.227-8.654-22.472-17.871-30.777zm-303.185 62.161h-33.256v176.85h-31.078v-176.85H82.684v-29.211h96.972v29.211h-.007zm83.912 176.85h-27.663v-16.794c-11.188 12.638-21.756 18.966-31.702 18.966-9.535 0-15.539-3.837-18.029-11.499-1.659-4.976-2.485-12.527-2.485-22.693V342.5h27.663v113.141c0 6.628.104 10.257.312 10.875.624 4.345 2.797 6.518 6.53 6.518 5.594 0 11.5-4.345 17.718-13.054V342.5h27.662v153.545h-.006zm105.674-45.998c0 15.128-.931 25.483-2.797 31.077-3.525 11.39-10.876 17.093-22.069 17.093-9.944 0-19.578-5.703-28.904-17.093v14.921h-27.663V289.984h27.663v67.442c8.904-11.182 18.543-16.781 28.904-16.781 11.188 0 18.544 5.802 22.069 17.399 1.866 5.392 2.797 15.648 2.797 30.777v61.226zm105.05-25.485h-55.631v27.039c0 14.302 4.761 21.438 14.296 21.438 6.836 0 10.979-3.727 12.43-11.181.41-2.075.624-8.391.624-18.966h28.281v4.045c0 10.159-.208 16.157-.625 18.029-.624 5.601-2.797 11.182-6.523 16.781-7.46 10.974-18.647 16.476-33.568 16.476-14.296 0-25.49-5.282-33.568-15.857-6.01-7.662-9.015-19.67-9.015-36.047v-53.771c0-16.364 2.901-28.384 8.703-36.059 8.078-10.563 19.161-15.845 33.256-15.845 13.88 0 24.865 5.281 32.943 15.845 5.594 7.675 8.391 19.694 8.391 36.059v32.014h.006z"/>
    <path d="M432.638 365.811c-9.326 0-13.983 7.051-13.983 21.139v14.303h27.974V386.95c-.007-14.083-4.664-21.139-13.991-21.139zM329.455 365.811c-4.768 0-9.431 2.283-13.984 6.849v93.544c4.554 4.565 9.217 6.836 13.984 6.836 8.078 0 12.124-6.934 12.124-20.82v-65.575c-.007-13.888-4.046-20.834-12.124-20.834z"/>
</svg>
